<svg xmlns:dc="http://purl.org/dc/elements/1.1/" xmlns:cc="http://creativecommons.org/ns#" xmlns:rdf="http://www.w3.org/1999/02/22-rdf-syntax-ns#" xmlns:svg="http://www.w3.org/2000/svg" xmlns="http://www.w3.org/2000/svg" xmlns:sodipodi="http://sodipodi.sourceforge.net/DTD/sodipodi-0.dtd" xmlns:inkscape="http://www.inkscape.org/namespaces/inkscape" version="1.1" x="0px" y="0px" viewBox="0 0 100 125"><g transform="translate(0,-952.36218)"><path style="font-size:medium;font-style:normal;font-variant:normal;font-weight:normal;font-stretch:normal;text-indent:0;text-align:start;text-decoration:none;line-height:normal;letter-spacing:normal;word-spacing:normal;text-transform:none;direction:ltr;block-progression:tb;writing-mode:lr-tb;text-anchor:start;baseline-shift:baseline;opacity:1;color:#000000;fill:#000000;fill-opacity:1;stroke:none;stroke-width:2;marker:none;visibility:visible;display:inline;overflow:visible;enable-background:accumulate;font-family:Sans;-inkscape-font-specification:Sans" d="M 49.875 11.96875 A 1.0001 1.0001 0 0 0 49 13 L 49 27.71875 A 1.0001 1.0001 0 1 0 51 27.71875 L 51 13 A 1.0001 1.0001 0 0 0 49.875 11.96875 z M 22.65625 19.34375 A 1.0001 1.0001 0 0 0 21.96875 20.875 L 29.375 33.15625 A 1.0103227 1.0103227 0 1 0 31.09375 32.09375 L 23.6875 19.84375 A 1.0001 1.0001 0 0 0 22.65625 19.34375 z M 37.4375 19.34375 A 1.0001 1.0001 0 0 0 36.6875 20.625 L 39.15625 29.21875 A 1.0087508 1.0087508 0 1 0 41.09375 28.65625 L 38.59375 20.0625 A 1.0001 1.0001 0 0 0 37.4375 19.34375 z M 62.21875 19.34375 A 1.0001 1.0001 0 0 0 61.40625 20.0625 L 58.90625 28.65625 A 1.0087508 1.0087508 0 1 0 60.84375 29.21875 L 63.3125 20.625 A 1.0001 1.0001 0 0 0 62.21875 19.34375 z M 77 19.34375 A 1.0001 1.0001 0 0 0 76.3125 19.84375 L 68.90625 32.09375 A 1.0103227 1.0103227 0 1 0 70.625 33.15625 L 78.03125 20.875 A 1.0001 1.0001 0 0 0 77 19.34375 z M 15.1875 31.625 A 1.0001 1.0001 0 0 0 14.71875 33.34375 L 20.875 39.46875 A 1.0001 1.0001 0 1 0 22.28125 38.0625 L 16.125 31.90625 A 1.0001 1.0001 0 0 0 15.1875 31.625 z M 84.46875 31.625 A 1.0001 1.0001 0 0 0 83.875 31.90625 L 77.71875 38.0625 A 1.0001 1.0001 0 1 0 79.125 39.46875 L 85.28125 33.34375 A 1.0001 1.0001 0 0 0 84.46875 31.625 z M 50 34.09375 C 34.282465 34.09375 21.09851 44.97345 17.71875 59.59375 A 1.0001 1.0001 0 1 0 19.65625 60.03125 C 22.82824 46.30983 35.206177 36.09375 50 36.09375 C 66.863159 36.09375 80.5612 49.385034 81.09375 66 L 8 66 A 1.0001 1.0001 0 0 0 7.8125 66 A 1.0043849 1.0043849 0 0 0 8 68 L 92 68 A 1.0001 1.0001 0 1 0 92 66 L 83.09375 66 C 82.559627 48.292876 67.93763 34.09375 50 34.09375 z M 23.1875 76 A 1.0043849 1.0043849 0 0 0 23.375 78 L 76.625 78 A 1.0001 1.0001 0 1 0 76.625 76 L 23.375 76 A 1.0001 1.0001 0 0 0 23.1875 76 z M 36.5 86 A 1.0043849 1.0043849 0 0 0 36.6875 88 L 63.3125 88 A 1.0001 1.0001 0 1 0 63.3125 86 L 36.6875 86 A 1.0001 1.0001 0 0 0 36.5 86 z " transform="translate(0,952.36218)"/></g><text x="0" y="115" fill="#000000" font-size="5px" font-weight="bold" font-family="'Helvetica Neue', Helvetica, Arial-Unicode, Arial, Sans-serif">Created by fae frey</text><text x="0" y="120" fill="#000000" font-size="5px" font-weight="bold" font-family="'Helvetica Neue', Helvetica, Arial-Unicode, Arial, Sans-serif">from the Noun Project</text></svg>